<?xml version="1.0" standalone="no"?>
 <!DOCTYPE svg PUBLIC "-//W3C//DTD SVG 1.1//EN" 
 "http://www.w3.org/Graphics/SVG/1.1/DTD/svg11.dtd"> 
<svg
  xmlns:svg="http://www.w3.org/2000/svg"
  xmlns="http://www.w3.org/2000/svg"
  xmlns:xlink="http://www.w3.org/1999/xlink"
  version="1.1"
  width="297.0022mm" height="210.0072mm" viewBox="0.0000 0.0000 297.0022 210.0072">
<title>SVG Image created as CDB-B_Cu.svg date 2025/10/17 13:07:48 </title>
  <desc>Image generated by PCBNEW </desc>
<g style="fill:#000000; fill-opacity:1.0000;stroke:#000000; stroke-opacity:1.0000;
stroke-linecap:round; stroke-linejoin:round;"
 transform="translate(0 0) scale(1 1)">
</g>
<g style="fill:#000000; fill-opacity:1.0000; stroke:none;">
<circle cx="153.5022" cy="52.0000" r="0.5000" /> 
</g>
<g style="fill:#000000; fill-opacity:1.0000; stroke:none;">
<circle cx="153.5022" cy="50.0000" r="0.5000" /> 
</g>
<g style="fill:#000000; fill-opacity:1.0000; stroke:none;">
<circle cx="154.0022" cy="43.5000" r="0.5000" /> 
</g>
<g style="fill:#000000; fill-opacity:1.0000; stroke:none;">
<circle cx="156.5422" cy="43.5000" r="0.5000" /> 
</g>
<g style="fill:#000000; fill-opacity:1.0000; stroke:none;">
<circle cx="159.0822" cy="43.5000" r="0.5000" /> 
</g>
<g style="fill:#000000; fill-opacity:1.0000; stroke:none;">
<circle cx="153.9522" cy="35.3750" r="0.5000" /> 
</g>
<g style="fill:#000000; fill-opacity:1.0000; stroke:none;">
<circle cx="156.4922" cy="35.3750" r="0.5000" /> 
</g>
<g style="fill:#000000; fill-opacity:1.0000; stroke:none;">
<circle cx="159.0322" cy="35.3750" r="0.5000" /> 
</g>
<g style="fill:#000000; fill-opacity:1.0000; stroke:none;">
<circle cx="136.8122" cy="88.5000" r="0.5000" /> 
</g>
<g style="fill:#000000; fill-opacity:1.0000; stroke:none;">
<circle cx="129.1922" cy="88.5000" r="0.5000" /> 
</g>
<g style="fill:#000000; fill-opacity:1.0000; stroke:none;">
<circle cx="128.1022" cy="96.5000" r="0.5000" /> 
</g>
<g style="fill:#000000; fill-opacity:1.0000; stroke:none;">
<circle cx="120.5022" cy="96.5000" r="0.5000" /> 
</g>
<g style="fill:#000000; fill-opacity:1.0000; stroke:none;">
<circle cx="134.1122" cy="100.1300" r="0.5000" /> 
</g>
<g style="fill:#000000; fill-opacity:1.0000; stroke:none;">
<circle cx="135.7722" cy="100.1400" r="0.5000" /> 
</g>
<g style="fill:#000000; fill-opacity:1.0000; stroke:none;">
<circle cx="137.4722" cy="100.1500" r="0.5000" /> 
</g>
<g style="fill:#000000; fill-opacity:1.0000; stroke:none;">
<circle cx="150.5022" cy="96.0000" r="0.5000" /> 
</g>
<g style="fill:#000000; fill-opacity:1.0000; stroke:none;">
<circle cx="153.0022" cy="96.0000" r="0.5000" /> 
</g>
<g style="fill:#000000; fill-opacity:1.0000; stroke:none;">
<circle cx="155.5022" cy="96.0000" r="0.5000" /> 
</g>
<g style="fill:#000000; fill-opacity:1.0000; stroke:none;">
<circle cx="158.0022" cy="96.0000" r="0.5000" /> 
</g>
<g style="fill:#000000; fill-opacity:1.0000; stroke:none;">
<circle cx="122.7947" cy="83.9075" r="0.5000" /> 
</g>
<g style="fill:#000000; fill-opacity:1.0000; stroke:none;">
<circle cx="122.7947" cy="81.9075" r="0.5000" /> 
</g>
<g style="fill:#000000; fill-opacity:1.0000; stroke:none;">
<circle cx="122.7947" cy="79.9075" r="0.5000" /> 
</g>
<g style="fill:#000000; fill-opacity:1.0000; stroke:none;">
<circle cx="122.7947" cy="77.9075" r="0.5000" /> 
</g>
<g style="fill:#000000; fill-opacity:1.0000; stroke:none;">
<circle cx="122.7947" cy="75.9075" r="0.5000" /> 
</g>
<g style="fill:#000000; fill-opacity:1.0000; stroke:none;">
<circle cx="122.7947" cy="73.9075" r="0.5000" /> 
</g>
<g style="fill:#000000; fill-opacity:1.0000; stroke:none;">
<circle cx="122.7947" cy="71.9075" r="0.5000" /> 
</g>
<g style="fill:#000000; fill-opacity:1.0000; stroke:none;">
<circle cx="122.7947" cy="69.9075" r="0.5000" /> 
</g>
<g style="fill:#000000; fill-opacity:1.0000; stroke:none;">
<circle cx="136.3947" cy="69.9075" r="0.5000" /> 
</g>
<g style="fill:#000000; fill-opacity:1.0000; stroke:none;">
<circle cx="136.3947" cy="71.9075" r="0.5000" /> 
</g>
<g style="fill:#000000; fill-opacity:1.0000; stroke:none;">
<circle cx="136.3947" cy="73.9075" r="0.5000" /> 
</g>
<g style="fill:#000000; fill-opacity:1.0000; stroke:none;">
<circle cx="136.3947" cy="75.9075" r="0.5000" /> 
</g>
<g style="fill:#000000; fill-opacity:1.0000; stroke:none;">
<circle cx="136.3947" cy="77.9075" r="0.5000" /> 
</g>
<g style="fill:#000000; fill-opacity:1.0000; stroke:none;">
<circle cx="136.3947" cy="79.9075" r="0.5000" /> 
</g>
<g style="fill:#000000; fill-opacity:1.0000; stroke:none;">
<circle cx="136.3947" cy="81.9075" r="0.5000" /> 
</g>
<g style="fill:#000000; fill-opacity:1.0000; stroke:none;">
<circle cx="136.3947" cy="83.9075" r="0.5000" /> 
</g>
<g style="fill:#000000; fill-opacity:1.0000; stroke:none;">
<circle cx="160.3822" cy="86.7800" r="0.5000" /> 
</g>
<g style="fill:#000000; fill-opacity:1.0000; stroke:none;">
<circle cx="157.8422" cy="86.7800" r="0.5000" /> 
</g>
<g style="fill:#000000; fill-opacity:1.0000; stroke:none;">
<circle cx="155.3022" cy="86.7800" r="0.5000" /> 
</g>
<g style="fill:#000000; fill-opacity:1.0000; stroke:none;">
<circle cx="152.7622" cy="86.7800" r="0.5000" /> 
</g>
<g style="fill:#000000; fill-opacity:1.0000; stroke:none;">
<circle cx="150.2222" cy="86.7700" r="0.5000" /> 
</g>
<g style="fill:#000000; fill-opacity:1.0000; stroke:none;">
<circle cx="147.6822" cy="86.7700" r="0.5000" /> 
</g>
<g style="fill:#000000; fill-opacity:1.0000; stroke:none;">
<circle cx="145.1422" cy="86.7700" r="0.5000" /> 
</g>
<g style="fill:#000000; fill-opacity:1.0000; stroke:none;">
<circle cx="142.6022" cy="86.7600" r="0.5000" /> 
</g>
<g style="fill:#000000; fill-opacity:1.0000; stroke:none;">
<circle cx="160.5022" cy="68.0000" r="0.5000" /> 
</g>
<g style="fill:#000000; fill-opacity:1.0000; stroke:none;">
<circle cx="158.0022" cy="68.0000" r="0.5000" /> 
</g>
<g style="fill:#000000; fill-opacity:1.0000; stroke:none;">
<circle cx="155.5022" cy="68.0000" r="0.5000" /> 
</g>
<g style="fill:#000000; fill-opacity:1.0000; stroke:none;">
<circle cx="153.0022" cy="68.0000" r="0.5000" /> 
</g>
<g style="fill:#000000; fill-opacity:1.0000; stroke:none;">
<circle cx="150.5022" cy="68.0000" r="0.5000" /> 
</g>
<g style="fill:#000000; fill-opacity:1.0000; stroke:none;">
<circle cx="148.0022" cy="68.0000" r="0.5000" /> 
</g>
<g style="fill:#000000; fill-opacity:1.0000; stroke:none;">
<circle cx="148.2422" cy="34.2200" r="0.5000" /> 
</g>
<g style="fill:#000000; fill-opacity:1.0000; stroke:none;">
<circle cx="148.2422" cy="36.7600" r="0.5000" /> 
</g>
<g style="fill:#000000; fill-opacity:1.0000; stroke:none;">
<circle cx="148.2422" cy="39.3000" r="0.5000" /> 
</g>
<g style="fill:#000000; fill-opacity:1.0000; stroke:none;">
<circle cx="148.2422" cy="41.8400" r="0.5000" /> 
</g>
<g style="fill:#000000; fill-opacity:1.0000; stroke:none;">
<circle cx="148.2422" cy="46.9200" r="0.5000" /> 
</g>
<g style="fill:#000000; fill-opacity:1.0000; stroke:none;">
<circle cx="148.2422" cy="44.3800" r="0.5000" /> 
</g>
<g style="fill:#000000; fill-opacity:1.0000; stroke:none;">
<circle cx="133.0022" cy="52.0000" r="0.5000" /> 
</g>
<g style="fill:#000000; fill-opacity:1.0000; stroke:none;">
<circle cx="148.2422" cy="52.0000" r="0.5000" /> 
</g>
<g style="fill:#000000; fill-opacity:1.0000; stroke:none;">
<circle cx="133.0022" cy="49.4600" r="0.5000" /> 
</g>
<g style="fill:#000000; fill-opacity:1.0000; stroke:none;">
<circle cx="133.0022" cy="46.9200" r="0.5000" /> 
</g>
<g style="fill:#000000; fill-opacity:1.0000; stroke:none;">
<circle cx="133.0022" cy="44.3800" r="0.5000" /> 
</g>
<g style="fill:#000000; fill-opacity:1.0000; stroke:none;">
<circle cx="133.0022" cy="41.8400" r="0.5000" /> 
</g>
<g style="fill:#000000; fill-opacity:1.0000; stroke:none;">
<circle cx="133.0022" cy="39.3000" r="0.5000" /> 
</g>
<g style="fill:#000000; fill-opacity:1.0000; stroke:none;">
<circle cx="133.0022" cy="36.7600" r="0.5000" /> 
</g>
<g style="fill:#000000; fill-opacity:1.0000; stroke:none;">
<circle cx="133.0022" cy="34.2200" r="0.5000" /> 
</g>
<g style="fill:#000000; fill-opacity:1.0000; stroke:none;">
<circle cx="148.2422" cy="49.4600" r="0.5000" /> 
</g>
<g style="fill:#000000; fill-opacity:1.0000; stroke:none;">
<circle cx="136.5022" cy="63.0000" r="1.0250" /> 
</g>
<g style="fill:#000000; fill-opacity:1.0000; stroke:none;">
<circle cx="139.0422" cy="60.4600" r="1.1250" /> 
</g>
<g style="fill:#000000; fill-opacity:1.0000; stroke:none;">
<circle cx="139.0422" cy="65.5400" r="1.1250" /> 
</g>
<g style="fill:#000000; fill-opacity:1.0000; stroke:none;">
<circle cx="133.9622" cy="60.4600" r="1.1250" /> 
</g>
<g style="fill:#000000; fill-opacity:1.0000; stroke:none;">
<circle cx="133.9622" cy="65.5400" r="1.1250" /> 
</g>
<g style="fill:#000000; fill-opacity:1.0000; stroke:none;">
<circle cx="139.0422" cy="94.0000" r="0.7000" /> 
</g>
<g style="fill:#000000; fill-opacity:1.0000; stroke:none;">
<circle cx="133.9622" cy="94.0000" r="0.7000" /> 
<circle cx="131.0022" cy="86.0000" r="0.3000" /> 
</g>
<g style="fill:#000000; fill-opacity:1.0000; stroke:none;">
<circle cx="161.0022" cy="47.0000" r="0.3000" /> 
</g>
<g style="fill:#000000; fill-opacity:1.0000; stroke:none;">
<circle cx="151.0022" cy="35.5000" r="0.3000" /> 
</g>
<g style="fill:#000000; fill-opacity:1.0000; stroke:none;">
<circle cx="140.0022" cy="91.5000" r="0.3000" /> 
</g>
<g style="fill:#000000; fill-opacity:1.0000; stroke:none;">
<circle cx="151.0022" cy="40.0000" r="0.3000" /> 
</g>
<g style="fill:#000000; fill-opacity:1.0000; stroke:none;">
<circle cx="138.5022" cy="79.5000" r="0.3000" /> 
</g>
<g style="fill:#000000; fill-opacity:1.0000; stroke:none;">
<circle cx="138.5022" cy="77.0000" r="0.3000" /> 
</g>
<g style="fill:#000000; fill-opacity:1.0000; stroke:none;">
<circle cx="145.0022" cy="48.5000" r="0.3000" /> 
</g>
<g style="fill:#000000; fill-opacity:1.0000; stroke:none;">
<circle cx="126.0022" cy="76.5000" r="0.3000" /> 
</g>
<g style="fill:#000000; fill-opacity:1.0000; stroke:none;">
<circle cx="145.0022" cy="45.5000" r="0.3000" /> 
</g>
<g style="fill:#000000; fill-opacity:1.0000; stroke:none;">
<circle cx="124.5022" cy="73.0000" r="0.3000" /> 
</g>
<g style="fill:#000000; fill-opacity:1.0000; stroke:none;">
<circle cx="145.0022" cy="38.0000" r="0.3000" /> 
</g>
<g style="fill:none; 
stroke:#000000; stroke-width:0.4000; stroke-opacity:1; 
stroke-linecap:round; stroke-linejoin:round;">
<path d="M155.5022 96.0000
L155.5022 97.3470
" />
<path d="M159.1479 30.5000
L140.0022 30.5000
" />
<path d="M155.5022 97.3470
L157.1552 99.0000
" />
<path d="M157.1552 99.0000
L160.0022 99.0000
" />
<path d="M165.0022 36.3543
L159.1479 30.5000
" />
<path d="M160.0022 99.0000
L165.0022 94.0000
" />
<path d="M165.0022 94.0000
L165.0022 36.3543
" />
<path d="M140.0022 30.5000
L133.7422 36.7600
" />
<path d="M133.7422 36.7600
L133.0022 36.7600
" />
<path d="M159.0322 35.3750
L159.0322 33.3600
" />
<path d="M159.0322 33.3600
L157.1722 31.5000
" />
<path d="M157.1722 31.5000
L142.1492 31.5000
" />
<path d="M134.3492 39.3000
L133.0022 39.3000
" />
<path d="M142.1492 31.5000
L134.3492 39.3000
" />
<path d="M153.9522 35.3750
L153.3772 35.3750
" />
<path d="M153.3772 35.3750
L150.5022 32.5000
" />
<path d="M150.5022 32.5000
L147.0022 32.5000
" />
<path d="M147.0022 32.5000
L143.5022 36.0000
" />
<path d="M143.5022 36.0000
L143.5022 53.2272
" />
<path d="M143.5022 53.2272
L158.0022 67.7272
" />
<path d="M158.0022 67.7272
L158.0022 68.0000
" />
<path d="M159.0822 43.5000
L159.0822 45.0800
" />
<path d="M130.5022 87.1900
L130.5022 86.5000
" />
<path d="M159.0822 45.0800
L161.0022 47.0000
" />
<path d="M129.1922 88.5000
L130.5022 87.1900
" />
<path d="M156.4922 37.2800
L156.4922 35.3750
" />
<path d="M128.1022 96.5000
L128.1022 89.5900
" />
<path d="M159.0822 43.5000
L159.0822 39.8700
" />
<path d="M130.5022 86.5000
L131.0022 86.0000
" />
<path d="M159.0822 39.8700
L156.4922 37.2800
" />
<path d="M128.1022 89.5900
L129.1922 88.5000
" />
<path d="M134.1122 100.1300
L124.1322 100.1300
" />
<path d="M124.1322 100.1300
L120.5022 96.5000
" />
<path d="M136.8122 88.5000
L135.0022 88.5000
" />
<path d="M131.5022 92.0000
L131.5022 97.5200
" />
<path d="M135.0022 88.5000
L131.5022 92.0000
" />
<path d="M131.5022 97.5200
L134.1122 100.1300
" />
<path d="M157.8422 86.7800
L157.8422 68.1600
" />
<path d="M154.0022 35.4250
L153.9522 35.3750
" />
<path d="M146.3522 100.1500
L150.5022 96.0000
" />
<path d="M157.8422 68.1600
L158.0022 68.0000
" />
<path d="M154.0022 43.5000
L154.0022 35.4250
" />
<path d="M157.8422 87.3130
L157.8422 86.7800
" />
<path d="M153.5022 44.0000
L154.0022 43.5000
" />
<path d="M147.0022 90.5000
L141.5022 90.5000
" />
<path d="M153.5022 50.0000
L153.5022 44.0000
" />
<path d="M140.0022 74.5604
L137.3493 71.9075
" />
<path d="M141.5022 90.5000
L140.0022 89.0000
" />
<path d="M137.4722 100.1500
L146.3522 100.1500
" />
<path d="M150.5022 96.0000
L150.5022 94.6530
" />
<path d="M150.5022 96.0000
L150.5022 94.0000
" />
<path d="M137.3493 71.9075
L136.3947 71.9075
" />
<path d="M140.0022 89.0000
L140.0022 74.5604
" />
<path d="M153.5022 50.0000
L148.7822 50.0000
" />
<path d="M150.5022 94.0000
L147.0022 90.5000
" />
<path d="M148.7822 50.0000
L148.2422 49.4600
" />
<path d="M150.5022 94.6530
L157.8422 87.3130
" />
<path d="M135.7722 95.8100
L133.9622 94.0000
" />
<path d="M135.7722 100.1400
L135.7722 95.8100
" />
<path d="M139.0422 92.4600
L140.0022 91.5000
" />
<path d="M151.0022 35.5000
L149.7222 34.2200
" />
<path d="M139.0422 94.0000
L139.0422 92.4600
" />
<path d="M149.7222 34.2200
L148.2422 34.2200
" />
<path d="M136.3947 79.9075
L138.0947 79.9075
" />
<path d="M148.2422 39.3000
L150.3022 39.3000
" />
<path d="M138.0947 79.9075
L138.5022 79.5000
" />
<path d="M150.3022 39.3000
L151.0022 40.0000
" />
<path d="M160.3822 68.1200
L160.5022 68.0000
" />
<path d="M156.0022 62.0000
L154.5022 62.0000
" />
<path d="M160.5022 68.0000
L160.5022 66.5000
" />
<path d="M136.3947 77.9075
L137.5947 77.9075
" />
<path d="M160.5022 66.5000
L156.0022 62.0000
" />
<path d="M145.0022 52.5000
L145.0022 48.5000
" />
<path d="M160.3822 86.7800
L160.3822 68.1200
" />
<path d="M137.5947 77.9075
L138.5022 77.0000
" />
<path d="M146.5822 46.9200
L148.2422 46.9200
" />
<path d="M154.5022 62.0000
L145.0022 52.5000
" />
<path d="M145.0022 48.5000
L146.5822 46.9200
" />
<path d="M146.1222 44.3800
L145.0022 45.5000
" />
<path d="M122.7947 77.9075
L124.5947 77.9075
" />
<path d="M124.5947 77.9075
L126.0022 76.5000
" />
<path d="M148.2422 44.3800
L146.1222 44.3800
" />
<path d="M134.8422 41.8400
L133.0022 41.8400
" />
<path d="M139.0022 46.0000
L134.8422 41.8400
" />
<path d="M139.0022 51.0000
L139.0022 46.0000
" />
<path d="M155.5022 67.5000
L139.0022 51.0000
" />
<path d="M155.3022 86.7800
L155.3022 68.2000
" />
<path d="M155.3022 68.2000
L155.5022 68.0000
" />
<path d="M155.5022 68.0000
L155.5022 67.5000
" />
<path d="M166.3022 94.7000
L160.5022 100.5000
" />
<path d="M166.3022 35.8000
L166.3022 94.7000
" />
<path d="M138.0222 29.2000
L159.7022 29.2000
" />
<path d="M153.0022 97.5000
L153.0022 96.0000
" />
<path d="M133.0022 34.2200
L138.0222 29.2000
" />
<path d="M159.7022 29.2000
L166.3022 35.8000
" />
<path d="M160.5022 100.5000
L156.0022 100.5000
" />
<path d="M156.0022 100.5000
L153.0022 97.5000
" />
<path d="M136.0022 53.5000
L133.5022 56.0000
" />
<path d="M121.0022 65.5000
L121.0022 74.1150
" />
<path d="M133.0022 47.1230
L133.0022 46.9200
" />
<path d="M130.5022 56.0000
L121.0022 65.5000
" />
<path d="M121.0022 74.1150
L122.7947 75.9075
" />
<path d="M133.0022 46.9200
L134.4222 46.9200
" />
<path d="M134.4222 46.9200
L136.0022 48.5000
" />
<path d="M136.0022 48.5000
L136.0022 53.5000
" />
<path d="M133.5022 56.0000
L130.5022 56.0000
" />
<path d="M121.5022 86.5000
L118.0022 83.0000
" />
<path d="M118.0022 62.0000
L130.5422 49.4600
" />
<path d="M130.5422 49.4600
L133.0022 49.4600
" />
<path d="M124.2772 86.5000
L121.5022 86.5000
" />
<path d="M118.0022 83.0000
L118.0022 62.0000
" />
<path d="M122.7947 79.9075
L123.9097 79.9075
" />
<path d="M123.9097 79.9075
L125.5022 81.5000
" />
<path d="M125.5022 85.2750
L124.2772 86.5000
" />
<path d="M125.5022 81.5000
L125.5022 85.2750
" />
<path d="M134.3492 44.3800
L133.0022 44.3800
" />
<path d="M153.0022 68.0000
L153.0022 67.5000
" />
<path d="M137.5022 52.0000
L137.5022 47.5330
" />
<path d="M153.0022 67.5000
L137.5022 52.0000
" />
<path d="M152.7622 68.2400
L153.0022 68.0000
" />
<path d="M152.7622 86.7800
L152.7622 68.2400
" />
<path d="M137.5022 47.5330
L134.3492 44.3800
" />
<path d="M119.5022 80.0000
L119.5022 63.0000
" />
<path d="M121.4097 81.9075
L119.5022 80.0000
" />
<path d="M130.5022 52.0000
L133.0022 52.0000
" />
<path d="M119.5022 63.0000
L130.5022 52.0000
" />
<path d="M122.7947 81.9075
L121.4097 81.9075
" />
<path d="M123.5947 73.9075
L124.5022 73.0000
" />
<path d="M146.2422 36.7600
L145.0022 38.0000
" />
<path d="M122.7947 73.9075
L123.5947 73.9075
" />
<path d="M148.2422 36.7600
L146.2422 36.7600
" />
<path d="M136.3947 69.9075
L136.3947 63.1075
" />
<path d="M136.3947 63.1075
L136.5022 63.0000
" />
<path d="M127.1622 65.5400
L122.7947 69.9075
" />
<path d="M133.9622 65.5400
L127.1622 65.5400
" />
<path d="M153.5022 52.0000
L148.2422 52.0000
" />
<path d="M162.5022 84.5000
L162.5022 51.4750
" />
<path d="M163.5022 85.5000
L162.5022 84.5000
" />
<path d="M158.0022 96.0000
L158.0022 93.5000
" />
<path d="M155.1022 52.0000
L156.5422 50.5600
" />
<path d="M153.5022 52.0000
L155.1022 52.0000
" />
<path d="M156.5422 43.5000
L156.5422 50.5600
" />
<path d="M156.5422 45.5150
L156.5422 43.5000
" />
<path d="M158.0022 93.5000
L163.5022 88.0000
" />
<path d="M162.5022 51.4750
L156.5422 45.5150
" />
<path d="M163.5022 88.0000
L163.5022 85.5000
" />
</g> 
</svg>
